<?xml version="1.0" standalone="no"?>
<!DOCTYPE svg PUBLIC "-//W3C//DTD SVG 20010904//EN"
 "http://www.w3.org/TR/2001/REC-SVG-20010904/DTD/svg10.dtd">
<svg version="1.0" xmlns="http://www.w3.org/2000/svg"
 width="1024.000000pt" height="1024.000000pt" viewBox="0 0 1024.000000 1024.000000"
 preserveAspectRatio="xMidYMid meet">
<metadata>
Created by potrace 1.15, written by Peter Selinger 2001-2017
</metadata>
<g transform="translate(0.000000,1024.000000) scale(0.100000,-0.100000)"
fill="#000000" stroke="none">
<path d="M0 5120 l0 -5120 5120 0 5120 0 0 5120 0 5120 -5120 0 -5120 0 0
-5120z m1545 2944 c609 -507 1101 -918 1110 -927 14 -14 -6 -7 -219 74 l-189
72 -426 269 c-234 149 -433 278 -442 287 -9 9 -31 72 -49 141 -18 69 -43 163
-56 210 -13 46 -24 93 -24 104 0 19 0 19 23 -1 12 -11 135 -114 272 -229z
m7390 5 c-32 -122 -64 -221 -73 -230 -10 -9 -134 -91 -277 -181 -143 -91 -334
-212 -425 -270 -147 -93 -187 -113 -355 -178 -105 -39 -199 -74 -210 -77 -18
-4 -18 -3 -4 9 18 15 591 495 1063 889 182 153 332 271 334 265 2 -7 -22 -109
-53 -227z m-6930 -228 l537 -336 79 -180 c44 -99 78 -183 76 -188 -2 -7 -1224
1006 -1272 1055 l-20 21 31 -18 c18 -10 274 -169 569 -354z m6825 365 c0 -3
-244 -208 -542 -457 -299 -250 -587 -491 -641 -536 -54 -46 -102 -83 -106 -83
-5 0 25 75 66 168 41 92 78 176 83 188 5 12 96 76 222 154 117 73 370 231 562
352 192 120 351 218 353 218 2 0 3 -2 3 -4z m-7664 -472 c87 -99 255 -289 372
-422 221 -249 257 -292 248 -292 -4 0 -350 163 -663 312 -55 26 -64 35 -73 66
-17 68 -140 603 -140 615 0 12 9 2 256 -279z m8100 -15 c-91 -392 -75 -352
-149 -387 -419 -200 -660 -312 -664 -309 -2 2 139 166 313 363 175 197 372
421 438 497 67 75 122 133 124 128 1 -4 -27 -136 -62 -292z m-7685 -86 c337
-203 614 -372 615 -378 3 -11 -325 -249 -347 -252 -8 -1 -81 75 -164 170 -82
94 -256 291 -385 437 -293 332 -343 390 -337 390 3 0 281 -165 618 -367z
m7687 350 c-8 -10 -156 -178 -328 -373 -172 -195 -363 -412 -424 -482 -67 -76
-117 -126 -126 -124 -25 5 -349 240 -347 251 3 10 1215 743 1231 744 5 1 2 -7
-6 -16z m-6431 -642 l252 -152 3 -146 c2 -80 -1 -147 -5 -150 -8 -5 -294 157
-326 186 -16 13 -191 395 -191 416 0 3 3 4 8 2 4 -2 120 -73 259 -156z m4748
-48 c-48 -109 -95 -205 -106 -214 -32 -28 -318 -191 -326 -186 -4 3 -6 71 -3
152 l5 146 255 154 c140 85 256 152 258 150 3 -2 -35 -93 -83 -202z m-5163
-262 l163 -224 248 -77 c136 -43 251 -80 255 -84 4 -4 -4 -5 -18 -2 -14 3 -97
15 -185 26 -88 11 -239 31 -335 44 l-175 23 -245 117 c-134 64 -248 120 -253
125 -8 8 361 281 375 278 5 -1 81 -103 170 -226z m5759 93 c104 -74 189 -138
189 -142 -1 -4 -115 -61 -256 -127 l-255 -120 -167 -22 c-92 -12 -241 -31
-332 -43 -91 -11 -176 -23 -190 -26 -15 -3 -21 -2 -15 4 6 5 109 39 230 76
121 37 232 72 247 78 19 7 77 79 189 234 89 123 163 224 166 224 2 0 90 -61
194 -136z m-5729 62 c188 -70 276 -112 482 -234 l170 -99 33 -98 c18 -54 31
-101 28 -103 -2 -2 -129 34 -282 81 -245 76 -281 90 -303 116 -24 28 -258 352
-274 379 -4 6 -5 12 -3 12 3 0 70 -24 149 -54z m5488 49 c0 -12 -287 -399
-305 -410 -25 -16 -554 -179 -561 -173 -2 3 11 49 29 103 l32 97 170 100 c204
120 294 164 479 234 144 54 156 58 156 49z m-4713 -147 c57 -46 111 -88 120
-95 11 -8 19 -49 29 -140 7 -70 15 -143 18 -160 3 -20 0 -33 -6 -33 -6 0 -70
52 -144 115 l-134 116 0 139 c0 77 3 140 6 140 3 0 53 -37 111 -82z m3901 -60
l-3 -142 -130 -113 c-71 -62 -136 -112 -143 -113 -9 0 -11 11 -7 38 3 20 12
92 19 160 12 108 17 125 37 141 166 133 215 170 222 171 4 0 6 -64 5 -142z
m-5693 -68 c773 -202 850 -222 858 -230 7 -6 -20 -12 -353 -71 -91 -16 -264
-47 -385 -69 -121 -21 -223 -36 -226 -32 -19 23 -369 512 -369 517 0 9 4 8
475 -115z m7845 114 c0 -5 -346 -488 -370 -516 -3 -4 -53 1 -110 11 -58 11
-208 38 -335 61 -479 85 -520 92 -524 96 -7 7 -38 -2 929 251 96 25 222 58
280 74 111 29 130 33 130 23z m-5719 -361 c89 -126 163 -235 163 -243 2 -43
-28 -360 -34 -360 -4 0 -66 109 -138 243 l-131 243 -16 153 c-16 163 -18 191
-11 191 3 0 78 -102 167 -227z m3274 39 l-16 -157 -130 -242 c-72 -134 -134
-243 -138 -243 -7 0 -37 301 -35 355 0 29 328 484 332 462 2 -9 -4 -88 -13
-175z m-3557 -30 c67 -58 122 -110 122 -116 0 -6 -21 -98 -46 -205 -54 -227
-69 -234 -62 -32 l5 126 -52 75 c-34 48 -62 105 -80 160 -15 47 -30 91 -33 99
-8 21 9 9 146 -107z m3832 115 c0 -2 -15 -49 -34 -104 -21 -63 -49 -121 -73
-155 -22 -29 -43 -59 -48 -67 -4 -7 -7 -76 -6 -151 1 -80 -2 -141 -7 -144 -10
-6 -107 375 -100 395 2 6 60 59 128 119 110 96 140 118 140 107z m-4655 -362
c54 -130 96 -237 94 -239 -4 -3 -279 67 -839 214 -58 15 -154 40 -213 55 -59
15 -104 31 -100 35 4 4 91 21 193 39 303 53 519 91 620 111 161 30 133 55 245
-215z m173 211 c97 -14 265 -37 372 -51 107 -15 196 -28 196 -28 1 -1 20 -29
43 -61 41 -59 41 -60 41 -153 0 -64 -4 -93 -12 -93 -6 0 -88 21 -182 46 -94
25 -210 56 -258 69 -84 23 -90 26 -242 149 -85 70 -158 131 -161 136 -9 14 4
13 203 -14z m5197 16 c-6 -5 -82 -66 -169 -137 l-159 -128 -126 -34 c-69 -18
-185 -49 -256 -68 -72 -19 -136 -35 -143 -35 -9 0 -12 28 -12 95 l0 96 42 57
c22 31 42 58 42 59 1 1 89 13 196 28 107 14 267 37 355 50 172 25 245 30 230
17z m197 -12 c57 -10 261 -46 453 -80 357 -62 381 -67 373 -75 -2 -2 -143 -40
-313 -84 -171 -44 -371 -96 -445 -116 -346 -91 -395 -103 -399 -99 -2 2 40
110 94 239 77 185 101 235 116 235 10 0 64 -9 121 -20z m-5297 -257 c17 -11
137 -48 274 -84 282 -73 282 -70 -9 -88 -102 -7 -234 -16 -295 -21 -60 -6
-113 -6 -117 -2 -9 9 -188 439 -188 452 0 6 69 -45 153 -113 83 -68 166 -132
182 -144z m5085 150 c-27 -65 -70 -170 -97 -233 l-49 -115 -40 1 c-112 5 -564
37 -594 43 -30 6 -3 15 190 65 124 32 241 65 261 73 20 8 110 74 200 148 90
73 167 134 171 134 4 1 -15 -52 -42 -116z m-4262 -263 c67 -124 124 -232 127
-241 6 -15 1 -15 -47 -4 -193 46 -308 81 -308 94 0 34 93 392 100 384 4 -4 62
-109 128 -233z m3327 49 c25 -101 45 -191 45 -199 0 -11 -45 -27 -168 -59 -92
-24 -173 -46 -179 -49 -21 -7 -15 12 30 94 24 44 83 152 131 242 49 90 90 161
92 159 3 -3 25 -87 49 -188z m-5405 -4 c195 -31 456 -71 580 -90 124 -20 259
-40 300 -47 41 -6 81 -14 88 -18 8 -4 -78 -21 -190 -39 -259 -41 -581 -94
-772 -127 -97 -16 -152 -22 -158 -16 -23 23 -255 388 -251 395 2 4 14 5 26 2
12 -3 182 -30 377 -60z m2296 38 c6 -16 50 -120 97 -233 l86 -205 -24 -175
c-28 -206 -43 -301 -48 -307 -4 -4 -11 15 -113 351 l-57 190 17 190 c9 105 16
197 16 204 0 22 15 13 26 -15z m2737 -30 c3 -32 11 -123 18 -203 l12 -145 -78
-260 c-43 -143 -81 -267 -86 -275 -11 -21 -14 -3 -49 255 l-29 220 97 232 c53
128 100 233 103 233 3 0 9 -26 12 -57z m2677 52 c0 -7 -240 -377 -254 -393
-10 -10 -48 -6 -191 17 -99 17 -353 58 -564 92 -250 41 -378 65 -365 71 10 4
195 35 409 67 385 59 792 123 890 140 65 11 75 12 75 6z m-4506 -266 c116 -61
215 -115 219 -119 9 -8 118 -452 113 -458 -2 -1 -27 66 -56 150 -32 94 -61
161 -74 173 -12 11 -96 61 -185 110 l-163 90 -39 77 c-41 81 -43 88 -32 88 4
0 101 -50 217 -111z m1116 106 c0 -3 -18 -40 -39 -83 l-39 -77 -144 -79 c-195
-109 -218 -123 -227 -149 -4 -12 -29 -84 -56 -160 -26 -76 -49 -136 -51 -135
-5 5 104 450 113 459 11 10 426 229 436 229 4 0 7 -2 7 -5z m-2510 -60 c0 -52
3 -59 55 -122 30 -37 53 -68 52 -69 -2 -2 -79 16 -173 40 -446 114 -584 151
-584 157 0 6 482 46 588 48 l62 1 0 -55z m4108 28 c128 -9 229 -20 225 -24 -5
-3 -91 -28 -193 -54 -102 -26 -270 -70 -374 -96 -104 -27 -191 -47 -193 -45
-3 2 21 34 51 70 54 63 56 68 56 122 l0 57 98 -6 c53 -4 202 -14 330 -24z
m-2806 -178 l293 -165 68 -197 c37 -109 67 -202 67 -207 0 -5 -42 47 -94 115
l-95 124 -198 120 -197 120 -73 120 c-67 111 -79 135 -69 135 2 0 136 -74 298
-165z m702 27 l38 -40 -67 -278 c-36 -154 -68 -280 -70 -282 -5 -5 -14 83 -25
258 -6 91 -15 223 -21 294 -5 72 -9 143 -9 159 l0 29 58 -50 c31 -28 74 -68
96 -90z m676 131 c0 -5 -33 -62 -73 -128 l-72 -120 -198 -120 -197 -120 -93
-122 c-50 -67 -95 -122 -98 -123 -3 0 26 92 65 205 l70 205 270 151 c149 84
280 158 291 165 23 15 35 17 35 7z m-1522 -282 c46 -23 242 -142 242 -146 0
-3 -39 9 -87 26 l-88 31 -91 -16 c-49 -9 -99 -16 -111 -16 -14 0 -39 25 -80
83 -58 79 -60 86 -76 184 -10 56 -17 109 -17 118 0 10 59 -39 141 -117 77 -73
152 -139 167 -147z m653 41 c-6 -119 -14 -281 -17 -359 -4 -79 -10 -143 -13
-143 -3 0 -37 129 -75 288 l-68 287 88 83 c49 46 90 78 92 72 2 -6 -1 -108 -7
-228z m1004 116 c-17 -112 -18 -114 -77 -195 -68 -95 -63 -93 -195 -67 l-83
17 -86 -32 c-48 -17 -89 -29 -91 -27 -4 4 242 156 255 156 4 1 70 61 147 135
76 74 141 132 143 130 3 -2 -3 -55 -13 -117z m-3322 62 c92 -24 167 -47 167
-51 0 -7 -262 -183 -310 -209 -25 -14 -40 -13 -570 41 -492 49 -685 70 -689
75 -2 2 0 4 5 4 5 1 263 43 574 95 311 51 585 92 610 91 25 -1 120 -22 213
-46z m5105 21 c98 -16 350 -57 562 -91 436 -70 434 -69 428 -76 -3 -2 -117
-16 -254 -29 -137 -14 -357 -36 -489 -50 -482 -48 -485 -48 -508 -38 -40 18
-317 203 -317 212 0 9 331 98 373 100 16 0 108 -12 205 -28z m-4348 -90 c105
-28 144 -42 142 -52 -6 -25 -143 -344 -151 -352 -5 -5 -21 58 -36 140 l-29
148 -63 76 c-35 42 -63 80 -63 84 0 9 15 6 200 -44z m3380 44 c0 -4 -28 -41
-63 -84 l-63 -79 -28 -146 c-16 -80 -31 -146 -35 -146 -7 0 -154 350 -153 365
0 6 70 29 154 51 153 42 188 49 188 39z m-3728 -82 c98 -25 175 -50 171 -54
-4 -4 -195 -55 -423 -113 -228 -59 -424 -109 -435 -113 -14 -3 -17 -2 -10 5
22 23 489 322 503 322 8 0 96 -21 194 -47z m4249 -59 c90 -59 202 -131 248
-161 46 -30 81 -56 79 -58 -2 -3 -71 13 -154 34 -82 22 -275 71 -429 111 -154
39 -287 73 -295 77 -15 5 326 101 366 102 12 1 95 -47 185 -105z m-2287 -254
c9 -129 16 -254 16 -277 l0 -43 -40 0 -41 0 6 103 c15 279 25 474 26 506 3 78
18 -54 33 -289z m-1441 248 c2 -13 41 -144 86 -292 45 -147 80 -270 78 -273
-6 -6 -307 194 -324 214 -9 11 -2 37 34 121 24 59 58 140 75 180 31 76 42 87
51 50z m2860 10 c3 -7 37 -89 76 -181 39 -93 71 -171 71 -173 0 -7 -332 -225
-336 -221 -7 6 169 587 177 587 4 0 9 -6 12 -12z m-3139 -17 c3 -4 -53 -56
-124 -115 l-130 -106 -318 1 c-236 1 -308 3 -282 11 62 18 825 216 837 217 6
1 14 -3 17 -8z m3636 -50 c124 -32 320 -82 435 -112 l210 -54 -318 -3 -318 -2
-129 106 c-112 93 -141 124 -112 124 4 0 108 -26 232 -59z m-972 -149 c-34
-95 -66 -172 -70 -172 -4 0 -24 32 -44 71 l-36 72 103 103 c57 57 104 102 106
100 2 -2 -25 -80 -59 -174z m-1884 69 l98 -98 -36 -72 c-20 -39 -40 -71 -44
-71 -4 0 -21 39 -39 88 -17 48 -45 124 -62 170 -17 45 -27 82 -23 82 4 0 52
-44 106 -99z m-779 72 c-4 -10 -36 -97 -71 -193 -36 -96 -77 -206 -92 -245
l-27 -70 -225 -3 -225 -2 23 22 c38 39 606 507 616 507 4 1 5 -7 1 -16z m3542
-103 c77 -63 217 -178 311 -255 94 -77 171 -143 172 -147 0 -5 -99 -8 -220 -8
-206 0 -220 1 -230 19 -5 11 -48 122 -94 248 -46 125 -87 236 -92 247 -12 30
5 19 153 -104z m-2902 -120 l94 -223 -10 -86 c-5 -47 -12 -101 -15 -119 l-5
-33 -112 77 c-62 43 -116 80 -120 84 -4 4 8 122 27 262 20 140 36 258 36 263
0 19 15 -13 105 -225z m2255 -64 c17 -126 28 -231 26 -234 -19 -18 -231 -160
-235 -156 -3 2 -10 56 -17 119 l-12 115 33 78 c18 42 61 145 96 227 74 176 62
192 109 -149z m-2844 138 c17 -94 20 -131 12 -141 -21 -26 -209 -186 -213
-182 -3 4 97 283 159 445 11 29 17 10 42 -122z m3413 -100 c44 -121 81 -224
81 -228 0 -7 -198 162 -220 189 -9 11 -7 39 10 122 30 156 30 157 39 147 5 -5
45 -108 90 -230z m-4339 178 c0 -4 -29 -26 -65 -48 -54 -35 -80 -44 -148 -53
-45 -7 -253 -39 -462 -71 -209 -33 -427 -67 -485 -76 -58 -8 -114 -18 -125
-20 -16 -4 -55 25 -158 116 -75 67 -137 125 -137 131 0 5 108 10 268 10 224 2
581 6 1200 17 61 1 112 -1 112 -6z m6163 -8 c306 -4 557 -11 557 -15 0 -8
-222 -210 -260 -236 -17 -12 -67 -5 -715 97 -110 17 -258 40 -330 51 -71 11
-137 22 -145 25 -28 10 -130 79 -130 88 0 5 99 6 233 2 127 -3 483 -9 790 -12z
m-4223 -20 c0 -8 -42 -148 -46 -153 -5 -6 -122 90 -129 106 -3 9 -4 17 -3 19
3 2 144 31 166 33 6 0 12 -2 12 -5z m1378 -15 c34 -6 62 -16 62 -21 0 -17
-126 -126 -134 -117 -5 5 -46 143 -46 153 0 4 12 5 28 2 15 -3 55 -11 90 -17z
m-1095 -73 c24 -10 58 -45 112 -116 42 -56 75 -104 72 -107 -3 -3 -99 23 -214
57 -278 82 -275 81 -268 88 4 4 52 28 108 54 106 49 125 52 190 24z m880 -23
c59 -26 107 -50 107 -54 0 -3 -102 -36 -226 -73 -124 -37 -232 -70 -240 -73
-26 -10 -14 12 64 112 64 82 86 103 122 117 25 9 50 17 55 18 6 0 58 -21 118
-47z m-2633 11 c-25 -8 -274 -72 -555 -143 l-510 -129 -312 56 c-172 31 -313
59 -313 63 0 3 80 18 178 33 403 62 574 89 707 111 128 21 170 23 495 23 321
0 351 -1 310 -14z m1409 -70 c1 -2 -11 -46 -29 -99 -36 -107 -36 -123 -2 -257
10 -43 16 -75 12 -73 -5 3 -43 67 -85 142 -43 76 -84 147 -91 159 -12 18 -9
30 27 105 58 119 53 116 113 67 28 -23 53 -43 55 -44z m1550 -21 l42 -81 -87
-154 c-81 -143 -127 -211 -111 -165 16 43 47 182 47 206 0 14 -14 68 -31 119
l-31 93 28 22 c16 12 40 32 54 44 31 27 35 24 89 -84z m1981 91 c108 -17 842
-131 908 -141 23 -3 42 -9 42 -12 0 -4 -141 -32 -312 -63 l-313 -56 -530 134
c-291 74 -543 138 -560 143 -20 6 91 10 320 10 271 1 371 -3 445 -15z m-4866
-27 c-16 -14 -100 -84 -188 -156 l-159 -131 -185 0 c-105 0 -182 4 -176 9 7 7
262 115 674 286 30 13 57 22 59 20 2 -3 -9 -15 -25 -28z m4401 -122 c193 -81
354 -151 359 -156 6 -5 -69 -9 -176 -9 l-186 0 -186 153 c-166 136 -212 180
-173 164 6 -3 170 -71 362 -152z m-1673 -25 c15 -46 28 -88 28 -92 0 -4 -21
-8 -47 -8 -56 0 -485 39 -491 44 -3 4 49 20 338 109 63 20 121 35 129 34 8 -1
26 -37 43 -87z m-1119 13 c125 -37 227 -70 227 -73 0 -8 -529 -44 -536 -37 -3
3 7 44 22 91 19 59 33 86 44 86 8 0 117 -30 243 -67z m-1236 -193 l-42 -225
-70 1 c-181 3 -345 16 -345 28 0 6 19 28 43 48 23 19 134 117 247 217 113 100
206 176 207 169 2 -7 -16 -114 -40 -238z m3520 29 c131 -115 239 -216 241
-224 3 -11 -6 -15 -28 -15 -17 0 -108 -5 -202 -11 -94 -6 -174 -7 -178 -2 -8
7 -90 432 -90 461 0 7 4 11 9 7 6 -3 117 -100 248 -216z m-3367 79 c41 -67 76
-127 78 -133 3 -11 -254 -305 -267 -305 -4 0 17 125 46 278 29 152 53 278 53
280 2 15 27 -19 90 -120z m3095 100 c3 -13 25 -133 50 -268 25 -135 48 -253
52 -264 3 -12 1 -16 -6 -12 -24 15 -271 301 -269 311 5 20 153 254 160 255 4
0 10 -10 13 -22z m-2402 -226 c48 -84 87 -160 87 -168 0 -18 -101 -204 -111
-204 -11 0 -24 20 -83 133 l-57 108 11 110 c11 109 41 203 59 183 4 -5 47 -78
94 -162z m1736 129 c13 -25 24 -77 31 -150 l11 -111 -57 -110 c-31 -61 -64
-116 -72 -122 -16 -14 -11 -20 -84 112 l-46 85 95 168 c53 92 97 167 99 167 2
0 13 -17 23 -39z m-1121 -21 c-5 -16 -472 -270 -480 -262 -10 10 -62 221 -56
227 3 3 124 14 269 24 145 10 266 19 267 20 2 0 2 -4 0 -9z m712 -16 c113 -9
207 -18 209 -20 4 -4 -36 -173 -50 -211 -8 -22 -13 -20 -156 61 -269 151 -333
188 -333 193 0 3 28 3 63 -1 34 -3 154 -13 267 -22z m-1801 -33 c17 -13 33
-56 67 -180 25 -90 43 -165 41 -168 -3 -2 -50 54 -106 124 l-102 128 6 64 c3
35 8 68 11 73 5 8 40 -9 83 -41z m2656 -22 l7 -70 -48 -62 c-120 -154 -156
-198 -161 -194 -2 3 10 56 27 119 63 229 56 213 108 247 26 17 50 31 53 31 4
0 10 -32 14 -71z m-1070 -115 c81 -91 145 -167 143 -170 -3 -2 -58 15 -124 38
l-119 43 -25 50 c-17 36 -25 72 -28 128 -2 42 -2 77 1 77 3 0 71 -75 152 -166z
m-506 129 c-14 -16 -83 -92 -153 -170 l-127 -142 -80 37 c-44 20 -81 41 -82
45 -2 8 439 256 457 257 6 0 -2 -12 -15 -27z m563 -60 c84 -48 181 -102 215
-120 34 -19 65 -38 68 -43 6 -9 -130 -80 -152 -80 -5 0 -70 69 -144 153 -131
148 -155 177 -146 177 3 0 74 -39 159 -87z m-514 10 c-3 -45 -13 -85 -29 -117
-24 -49 -25 -50 -128 -88 -58 -21 -109 -37 -115 -35 -10 3 253 305 268 306 4
1 6 -29 4 -66z m-1814 38 c12 -5 -45 -24 -180 -60 -110 -29 -298 -80 -419
-112 -121 -33 -269 -73 -330 -89 -259 -70 -561 -151 -579 -157 -55 -16 18 34
284 192 162 97 309 186 325 198 30 22 37 22 450 27 231 3 422 6 425 7 3 1 13
-2 24 -6z m2059 -43 c28 -33 54 -78 68 -118 l22 -65 -37 -53 c-21 -28 -43 -52
-48 -52 -8 0 -9 28 -4 87 l6 87 -37 38 c-49 50 -80 50 -128 1 l-36 -38 7 -87
c8 -106 -1 -111 -52 -33 l-37 55 23 62 c13 35 43 86 67 116 42 50 47 52 93 52
46 0 51 -3 93 -52z m2787 5 c25 -17 169 -104 320 -194 151 -89 279 -166 284
-170 21 -18 -4 -18 -71 1 -39 11 -223 60 -410 110 -186 50 -428 115 -538 145
-110 29 -268 72 -352 94 -84 23 -156 42 -160 43 -24 7 427 12 637 8 l245 -5
45 -32z m-3823 -227 c24 -48 42 -90 40 -92 -8 -9 -221 -24 -228 -17 -8 8 -99
334 -99 353 0 6 55 -26 121 -72 l121 -83 45 -89z m2128 68 c-26 -93 -50 -173
-54 -177 -8 -8 -220 8 -229 17 -2 3 16 45 41 93 l45 88 119 82 c65 45 119 78
121 73 2 -4 -18 -84 -43 -176z m950 121 c77 -20 237 -63 355 -95 210 -57 309
-84 730 -196 249 -66 240 -63 220 -74 -9 -4 -135 12 -310 40 -162 26 -385 62
-495 80 -110 17 -261 41 -335 54 l-136 22 -59 60 c-33 33 -84 81 -112 107 -29
26 -53 50 -53 52 0 2 12 0 28 -5 15 -5 90 -25 167 -45z m-4174 -42 c-55 -49
-100 -94 -100 -101 -1 -19 -35 -29 -181 -52 -74 -11 -353 -56 -620 -99 -289
-47 -491 -75 -500 -71 -19 11 -40 4 260 84 258 69 921 248 1100 296 58 16 113
29 123 29 10 1 -25 -36 -82 -86z m-896 68 c-8 -7 -479 -290 -565 -339 -24 -13
-37 -8 -228 80 -144 66 -197 95 -185 100 10 4 191 37 403 73 212 37 419 72
460 80 94 16 127 18 115 6z m6040 -16 c77 -14 286 -50 465 -80 179 -31 333
-59 343 -63 13 -5 -28 -28 -155 -86 -95 -44 -187 -86 -204 -94 -31 -14 -32
-14 -335 167 -196 117 -295 181 -279 181 14 0 88 -12 165 -25z m-4535 -210
c-7 -96 -18 -181 -24 -189 -11 -14 -395 -130 -403 -122 -3 2 93 115 213 250
120 135 220 243 223 241 2 -3 -2 -84 -9 -180z m3074 -61 c120 -135 215 -248
213 -251 -9 -8 -392 108 -403 122 -6 8 -16 88 -23 177 -7 90 -15 171 -18 181
-2 9 0 17 5 17 5 0 107 -111 226 -246z m-2924 105 l103 -131 -61 -61 c-33 -34
-92 -96 -131 -137 l-72 -75 6 85 c3 47 13 156 21 243 8 86 14 168 14 182 0 14
4 25 8 25 5 0 55 -59 112 -131z m1329 99 c30 -32 31 -35 31 -133 0 -91 -3
-107 -37 -192 -20 -51 -40 -93 -43 -93 -4 0 -24 43 -44 95 -32 85 -36 104 -36
192 0 96 0 98 32 130 40 41 59 41 97 1z m1351 7 c0 -14 6 -96 14 -182 8 -87
18 -196 21 -243 l6 -85 -73 75 c-41 41 -100 103 -132 137 l-58 62 102 131 c57
71 107 130 111 130 5 0 9 -11 9 -25z m-2025 -265 c38 -88 66 -163 63 -166 -3
-3 -31 1 -62 9 -39 11 -76 31 -121 67 -36 29 -65 55 -63 59 19 41 104 191 109
191 3 0 37 -72 74 -160z m470 95 c25 -36 45 -70 43 -75 -2 -5 -40 -47 -85 -93
l-81 -84 -107 -12 c-59 -7 -110 -10 -113 -7 -5 5 17 38 148 223 95 135 127
142 195 48z m411 54 c21 -7 60 -53 141 -167 61 -86 110 -158 108 -160 -2 -2
-54 2 -117 9 l-113 12 -80 85 c-44 46 -81 88 -83 93 -5 13 88 139 102 139 7 0
26 -5 42 -11z m499 -81 c28 -51 51 -96 53 -99 2 -4 -27 -30 -63 -59 -45 -36
-83 -56 -121 -67 -31 -8 -59 -13 -63 -11 -9 3 128 328 138 328 3 0 29 -42 56
-92z m-1320 42 l88 -41 56 19 c31 11 65 23 75 28 30 12 18 -9 -88 -155 -79
-110 -96 -129 -104 -114 -5 10 -33 74 -62 143 -29 69 -57 133 -62 143 -13 25
-2 22 97 -23z m1232 33 c-3 -5 -30 -69 -62 -143 -32 -74 -62 -143 -67 -153 -8
-15 -26 5 -113 125 -56 79 -102 144 -100 146 2 2 36 -8 77 -23 l74 -26 85 39
c82 39 115 50 106 35z m1826 -216 c185 -110 336 -201 335 -203 -5 -5 -1092
288 -1102 296 -8 8 -27 92 -21 98 9 9 413 27 430 19 11 -5 172 -99 358 -210z
m-4256 196 l61 -6 -5 -36 c-3 -20 -9 -43 -13 -51 -8 -14 -99 -40 -867 -245
-128 -34 -233 -59 -233 -56 0 3 67 45 148 93 81 48 235 139 342 203 l195 117
155 -6 c85 -4 183 -9 217 -13z m831 -159 c-22 -32 -138 -129 -363 -304 -344
-267 -374 -289 -339 -249 11 13 127 149 258 301 l236 276 63 6 c34 3 76 8 92
9 17 2 43 5 58 6 l28 1 -33 -46z m2019 30 l52 -5 242 -282 c133 -155 249 -290
257 -299 8 -10 12 -18 9 -18 -3 0 -151 113 -329 251 -297 230 -382 303 -409
352 -11 20 -7 20 178 1z m-1132 -106 l38 -97 -64 -100 c-35 -56 -68 -100 -73
-98 -9 3 -106 224 -106 242 0 15 153 166 161 157 3 -4 23 -51 44 -104z m295
-53 c0 -15 -90 -228 -101 -239 -10 -11 -17 -3 -90 112 l-52 83 28 72 c16 40
35 87 42 106 l15 34 79 -79 c43 -43 79 -83 79 -89z m-2032 94 c-29 -34 -60
-70 -68 -80 -11 -14 -110 -44 -380 -114 -842 -219 -974 -253 -993 -261 -9 -3
-17 -2 -17 2 0 5 75 53 165 106 179 105 147 93 560 203 77 20 169 45 205 55
36 10 128 35 205 55 77 21 185 50 240 66 144 40 146 40 83 -32z m990 -4 c45
-36 82 -71 82 -78 0 -6 7 -88 15 -182 8 -93 12 -171 10 -174 -5 -4 -277 257
-284 272 -4 10 80 227 88 227 4 0 43 -29 89 -65z m1722 -44 c23 -60 41 -113
39 -119 -6 -14 -279 -275 -284 -270 -2 2 2 82 10 178 8 96 15 178 15 182 0 9
161 138 171 138 3 0 25 -49 49 -109z m1200 8 c206 -55 467 -125 579 -156 l204
-55 161 -95 c180 -107 171 -101 165 -108 -3 -2 -34 4 -69 14 -36 10 -119 32
-185 49 -66 18 -345 90 -620 162 -467 121 -502 132 -525 159 -14 16 -45 52
-68 80 -24 28 -38 51 -31 51 7 0 182 -45 389 -101z m-3100 -61 c-17 -46 -69
-160 -113 -255 l-82 -172 -175 -160 c-96 -87 -177 -157 -179 -156 -1 2 40 80
93 174 69 123 129 212 213 319 65 82 152 192 193 244 41 53 77 94 79 92 2 -2
-11 -41 -29 -86z m2130 -183 c144 -181 191 -250 268 -388 52 -93 92 -170 90
-172 -1 -2 -82 68 -178 156 l-175 160 -82 172 c-75 159 -143 320 -143 340 0
11 10 -1 220 -268z m-2616 168 c-4 -43 -10 -82 -15 -87 -9 -10 -841 -397 -845
-393 -1 1 94 100 212 219 l215 218 202 59 c111 33 210 60 219 60 16 1 17 -7
12 -76z m3137 17 l208 -60 215 -218 c118 -119 213 -218 212 -219 -4 -4 -837
384 -846 393 -14 16 -22 164 -9 164 7 0 106 -27 220 -60z m-2271 -14 c41 -8
87 -17 102 -18 28 -3 27 -5 -67 -138 -52 -74 -99 -136 -104 -138 -5 -2 -12 50
-15 115 -4 65 -10 138 -13 162 -5 36 -3 43 8 39 8 -3 48 -13 89 -22z m1276
-28 c-3 -29 -9 -102 -12 -161 -4 -59 -11 -106 -15 -105 -5 2 -52 64 -104 138
l-96 135 53 7 c29 4 78 14 108 22 30 7 59 14 64 15 4 1 6 -23 2 -51z m-1743
20 c-81 -108 -234 -298 -387 -481 -218 -262 -198 -255 -210 -68 l-6 96 297
232 c275 213 331 254 306 221z m845 -118 c32 -77 50 -135 46 -142 -25 -40
-137 -188 -141 -185 -2 2 -19 62 -38 133 -19 71 -45 165 -56 209 -12 44 -22
84 -23 89 -1 13 46 23 109 25 l50 1 53 -130z m632 113 c5 -4 -2 -44 -14 -88
-13 -44 -38 -136 -56 -205 -18 -69 -36 -131 -40 -138 -4 -8 -32 21 -78 83 -40
52 -72 98 -72 102 0 4 24 65 53 136 l52 129 74 -5 c40 -3 77 -9 81 -14z m944
-218 l297 -230 -7 -96 c-3 -53 -9 -111 -13 -129 l-6 -33 -175 209 c-161 193
-384 470 -404 503 -5 8 -5 12 1 10 5 -2 143 -107 307 -234z m-3282 188 c-11
-16 -31 -38 -44 -49 -30 -28 -785 -394 -812 -394 -31 0 -469 101 -480 111 -5
4 4 11 20 15 16 4 317 82 669 174 352 92 646 168 653 169 9 1 7 -8 -6 -26z
m4250 -83 c233 -60 473 -123 533 -139 61 -16 166 -43 235 -61 150 -38 171 -45
150 -54 -30 -11 -453 -106 -475 -106 -28 0 -782 364 -813 394 -27 24 -66 76
-58 76 3 0 196 -49 428 -110z m-2721 -102 c70 -261 67 -241 33 -227 -16 6 -87
31 -159 56 -71 25 -134 48 -138 53 -4 4 40 75 99 159 59 83 109 150 111 147 2
-2 27 -87 54 -188z m944 41 c58 -83 103 -154 100 -158 -12 -12 -320 -118 -323
-111 -1 4 17 81 42 171 24 90 49 183 56 207 6 23 12 42 14 42 2 0 52 -68 111
-151z m-425 -70 c0 -12 -122 -229 -129 -229 -6 0 -114 186 -129 222 -4 8 62
118 106 177 l25 33 63 -98 c35 -55 64 -102 64 -105z m-835 -91 c0 -9 -189
-228 -197 -228 -15 0 -58 232 -66 353 -4 71 -5 130 -3 133 5 5 266 -248 266
-258z m1673 120 c-8 -124 -50 -348 -67 -348 -6 0 -24 21 -150 167 l-54 63 134
129 c74 71 136 127 139 126 3 -2 2 -63 -2 -137z m-2613 -40 c-66 -68 -202
-206 -302 -308 l-183 -185 -125 -65 c-68 -35 -126 -62 -128 -60 -5 6 58 368
65 375 7 8 772 364 782 364 6 1 -44 -54 -109 -121z m3571 -58 c213 -98 389
-182 392 -185 8 -8 71 -369 65 -375 -2 -2 -60 25 -129 60 l-124 65 -188 190
c-286 290 -417 425 -409 425 3 0 180 -81 393 -180z m-1999 -79 c51 -91 61
-116 53 -131 -6 -11 -16 -17 -23 -15 -6 2 -63 20 -124 40 -62 20 -113 40 -113
46 0 16 124 178 135 175 5 -1 38 -53 72 -115z m291 35 c34 -47 62 -89 62 -94
0 -8 -96 -44 -237 -87 -7 -3 -17 4 -23 15 -8 15 2 41 53 134 34 63 67 116 72
116 6 0 38 -38 73 -84z m571 -111 c80 -94 99 -122 89 -131 -27 -25 -300 -196
-305 -191 -3 3 16 95 42 204 48 198 62 249 69 242 2 -2 49 -58 105 -124z
m-1410 -101 c30 -118 51 -218 48 -221 -5 -5 -276 165 -305 192 -10 9 8 35 88
128 55 64 104 117 109 117 4 0 31 -97 60 -216z m136 152 c104 -37 150 -58 149
-68 -1 -8 -45 -78 -99 -154 -112 -160 -104 -149 -110 -142 -5 4 -105 400 -105
413 0 9 16 5 165 -49z m1135 50 c0 -15 -99 -408 -104 -413 -8 -8 2 -20 -111
141 -54 76 -98 146 -99 155 -1 11 38 30 144 68 138 49 170 59 170 49z m-1591
-136 l23 -109 -28 -116 c-15 -63 -31 -115 -34 -115 -3 0 -30 54 -60 121 l-53
121 18 36 c28 61 95 172 103 172 4 0 18 -49 31 -110z m1977 11 c30 -51 54 -98
54 -104 0 -18 -102 -247 -110 -247 -4 0 -20 52 -35 116 l-27 116 24 109 c12
60 27 108 32 106 5 -2 33 -45 62 -96z m-2700 -138 c4 -62 3 -113 -1 -113 -5 0
-75 -16 -157 -36 -82 -19 -154 -34 -160 -32 -6 2 59 84 143 183 l154 178 7
-34 c3 -19 10 -85 14 -146z m3496 10 c79 -93 148 -174 153 -182 10 -17 3 -16
-194 30 l-134 32 7 106 c7 104 16 181 21 181 2 0 68 -75 147 -167z m-3099 1
l-68 -139 -99 -3 -99 -3 69 64 c209 192 259 236 262 229 1 -5 -28 -71 -65
-148z m2638 6 l159 -145 -92 -3 c-65 -2 -95 1 -103 10 -20 21 -145 290 -134
286 6 -2 82 -69 170 -148z m-1534 95 c74 -23 113 -41 113 -50 0 -8 9 -29 20
-47 l19 -33 -75 -128 c-42 -71 -78 -126 -81 -123 -13 12 -129 416 -120 416 6
0 62 -16 124 -35z m399 -170 c-34 -112 -65 -207 -68 -210 -4 -4 -40 51 -82
122 l-75 128 19 33 c11 18 20 39 20 47 0 13 189 82 231 84 13 1 5 -35 -45
-204z m-481 -31 c35 -115 62 -210 60 -213 -5 -5 -326 106 -337 117 -5 5 40 77
98 161 58 83 108 150 111 147 3 -2 33 -98 68 -212z m664 72 c56 -80 103 -151
106 -158 4 -10 -43 -30 -165 -72 -94 -32 -173 -56 -175 -54 -3 3 10 54 29 114
19 60 48 155 65 212 18 56 33 102 35 102 3 0 50 -65 105 -144z m-2773 82 c-19
-145 -60 -330 -74 -336 -14 -5 -272 27 -282 35 -6 5 342 353 354 353 5 0 6
-23 2 -52z m4894 -123 c96 -96 172 -176 170 -178 -7 -6 -231 -37 -262 -37 -15
0 -29 4 -33 9 -6 11 -51 250 -61 329 -4 29 -3 52 2 52 5 0 88 -79 184 -175z
m-3280 -24 c74 -48 135 -93 135 -99 0 -13 -176 -231 -187 -232 -8 0 -13 17
-65 248 -24 103 -35 172 -29 172 6 -1 72 -40 146 -89z m1594 -98 c-57 -247
-54 -235 -63 -231 -12 4 -191 221 -191 230 0 10 271 187 286 188 6 0 -6 -74
-32 -187z m-1711 -70 l44 -191 -23 -29 -22 -28 -40 86 c-70 152 -69 146 -43
256 24 101 32 124 38 108 1 -6 22 -96 46 -202z m940 74 c42 -73 77 -141 77
-150 0 -17 -117 -629 -126 -659 -3 -12 -15 -18 -33 -18 -25 0 -30 5 -39 43
-16 64 -122 616 -122 634 0 17 151 283 160 283 3 0 40 -60 83 -133z m858 21
l27 -101 -50 -111 c-27 -61 -53 -115 -57 -119 -5 -5 -17 4 -28 20 l-20 28 45
198 c25 108 48 194 51 191 3 -3 18 -51 32 -106z m-1397 -248 c59 -106 105
-197 104 -201 -3 -6 -415 155 -427 166 -1 2 43 58 99 125 56 67 106 118 110
113 4 -4 56 -96 114 -203z m1142 84 c53 -64 94 -117 92 -119 -2 -3 -94 -41
-204 -85 -109 -45 -205 -84 -211 -87 -23 -9 -14 12 63 153 135 247 145 265
155 259 5 -4 52 -58 105 -121z m-898 1 c9 -3 -8 -45 -53 -136 -37 -72 -68
-129 -71 -127 -5 6 -204 370 -204 374 0 3 251 -82 328 -111z m652 -75 c-55
-101 -102 -185 -104 -188 -3 -2 -34 55 -71 127 -45 91 -62 133 -53 136 84 31
324 112 326 110 1 -1 -42 -85 -98 -185z m-134 -211 c-16 -10 -177 -41 -182
-36 -2 2 9 70 26 152 16 81 30 151 31 154 0 3 31 -55 68 -129 46 -90 65 -137
57 -141z m-455 108 c15 -78 26 -143 24 -145 -8 -8 -177 32 -182 43 -5 15 116
260 124 251 4 -3 19 -70 34 -149z m-433 -43 c103 -42 193 -79 200 -83 10 -5
-13 -25 -70 -61 -45 -29 -92 -59 -104 -67 -20 -13 -26 -7 -116 124 -107 157
-111 163 -104 163 4 0 90 -34 194 -76z m1360 68 c-1 -4 -48 -72 -102 -150 -94
-135 -100 -142 -120 -129 -12 8 -58 37 -104 67 -46 29 -81 54 -79 57 6 6 390
162 400 163 5 0 7 -4 5 -8z m-1477 -148 c53 -76 94 -142 90 -145 -3 -3 -37 -3
-75 0 -64 6 -70 8 -77 31 -3 14 -25 67 -48 119 -40 89 -41 95 -26 118 9 13 21
23 27 21 6 -2 55 -67 109 -144z m1534 122 c15 -22 13 -29 -26 -117 -23 -52
-45 -105 -48 -119 -7 -23 -13 -25 -82 -31 -41 -3 -76 -5 -77 -3 -7 5 199 294
208 294 5 0 17 -11 25 -24z m-981 -166 c5 -5 -13 -42 -40 -84 -26 -42 -51 -73
-55 -69 -10 11 -69 162 -69 177 0 10 16 10 78 -1 42 -8 81 -18 86 -23z m426
-66 c-17 -43 -35 -83 -39 -87 -8 -8 -101 131 -101 150 0 15 164 41 168 27 2
-6 -11 -47 -28 -90z m232 -47 c-20 -4 -83 -22 -140 -39 -56 -17 -105 -28 -109
-25 -6 7 14 64 53 155 l23 52 105 -67 106 -68 -38 -8z m-807 38 c21 -53 35
-98 32 -101 -3 -3 -50 8 -104 25 -54 16 -118 33 -142 37 l-43 7 98 63 c55 35
104 64 110 64 7 0 29 -43 49 -95z m210 -87 c15 -79 30 -149 32 -155 9 -24 -12
-13 -69 36 -31 27 -69 58 -83 69 l-26 21 53 85 c29 47 56 85 59 86 4 0 19 -64
34 -142z m264 56 c47 -74 52 -86 38 -97 -8 -7 -47 -38 -86 -71 -40 -32 -73
-57 -75 -55 -6 6 56 309 63 309 3 -1 30 -39 60 -86z m581 -53 c0 -30 -8 -44
-43 -79 l-44 -43 -47 72 c-26 39 -45 73 -42 76 6 7 158 20 169 15 4 -2 7 -20
7 -41z m-1344 27 c7 -8 -78 -138 -91 -138 -5 0 -26 17 -47 37 -31 30 -38 44
-38 76 l0 40 85 -5 c47 -2 87 -7 91 -10z m202 -34 c51 -16 92 -33 92 -38 0 -4
-34 -51 -76 -102 l-76 -94 -70 0 c-65 0 -71 2 -96 32 -60 70 -60 61 3 155 57
85 57 85 94 80 21 -2 79 -17 129 -33z m988 -48 c62 -93 62 -84 2 -154 -25 -30
-30 -32 -97 -32 l-70 0 -76 94 c-41 51 -75 98 -75 103 0 12 192 71 232 72 24
1 36 -11 84 -83z m-747 -77 c50 -44 91 -83 90 -87 0 -4 -19 -52 -43 -107 -41
-97 -43 -100 -82 -108 -21 -4 -61 -6 -88 -5 l-49 3 -53 85 c-30 47 -54 90 -54
96 0 20 154 204 171 204 9 0 58 -36 108 -81z m484 -16 c42 -53 77 -101 77
-108 0 -6 -24 -49 -53 -95 l-53 -85 -49 -3 c-28 -1 -68 1 -89 5 -39 9 -40 10
-83 113 -24 57 -42 106 -41 110 7 17 184 160 198 160 9 0 50 -43 93 -97z
m-1072 55 c16 -18 29 -35 29 -39 0 -8 -452 -191 -457 -185 -4 4 379 255 390
255 4 1 21 -14 38 -31z m1694 -94 c108 -70 194 -128 192 -130 -2 -2 -107 38
-234 89 l-231 91 30 38 c16 21 34 38 39 38 5 0 97 -57 204 -126z m-1665 19 c0
-8 -287 -388 -304 -402 -8 -7 -49 -4 -119 6 l-107 16 -42 65 -42 65 24 16 c21
14 564 238 583 240 4 1 7 -2 7 -6z m1686 -105 c154 -62 291 -120 304 -129 l24
-16 -42 -65 -43 -66 -110 -17 c-61 -9 -112 -15 -113 -13 -2 1 -61 79 -132 173
-169 222 -186 245 -176 245 4 0 134 -51 288 -112z m-1613 57 c36 -42 39 -44
99 -47 l62 -3 -69 -51 c-428 -314 -528 -385 -531 -381 -5 4 388 526 396 527 3
0 23 -20 43 -45z m1492 -206 c105 -137 197 -260 205 -272 22 -32 45 -47 -455
318 l-149 110 62 3 c59 3 63 4 98 47 20 25 39 45 43 45 3 0 92 -113 196 -251z
m-791 98 l49 -117 -58 -53 c-32 -28 -62 -52 -65 -52 -4 0 -33 24 -65 53 l-58
53 29 67 c72 171 73 174 97 170 18 -2 31 -25 71 -121z m-417 -101 l25 -39 64
6 c46 3 64 1 61 -7 -4 -13 -569 -537 -574 -533 -3 4 312 666 331 696 6 10 16
1 39 -35 16 -27 41 -66 54 -88z m949 -226 c90 -189 163 -345 161 -347 -5 -5
-577 526 -577 536 0 4 30 7 67 7 l66 -1 51 82 c28 45 55 78 59 74 5 -5 82
-163 173 -351z m-1106 324 c0 -5 -106 -208 -237 -451 -48 -90 -32 -80 -182
-118 l-63 -16 -72 59 c-39 32 -71 63 -71 70 0 11 601 460 618 461 4 1 7 -2 7
-5z m1288 -197 c152 -112 292 -213 310 -226 17 -12 32 -28 32 -34 -1 -7 -34
-38 -74 -70 l-74 -57 -96 23 c-53 13 -100 27 -105 33 -11 11 -281 519 -281
528 0 3 2 6 5 6 3 0 130 -91 283 -203z m-846 -2 c28 -25 54 -45 58 -45 5 0 30
20 57 45 26 24 51 45 54 45 6 0 -3 -53 -51 -305 -15 -82 -33 -183 -40 -222 -6
-40 -15 -73 -19 -73 -5 0 -18 55 -30 123 -12 67 -36 202 -54 300 -19 97 -32
177 -29 177 2 0 27 -20 54 -45z m-232 -306 c-61 -178 -114 -327 -118 -331 -4
-4 -62 -13 -128 -20 l-120 -12 -78 59 -78 59 79 76 c73 70 184 175 443 414 58
53 106 93 108 88 1 -5 -47 -154 -108 -333z m785 56 c167 -154 305 -285 308
-292 3 -6 -28 -37 -70 -69 l-75 -58 -121 12 c-66 6 -124 15 -128 19 -4 4 -53
141 -109 303 -55 162 -107 312 -115 333 -9 24 -10 37 -3 35 6 -2 147 -130 313
-283z m-560 -83 l56 -303 -22 -122 c-11 -67 -24 -125 -28 -130 -11 -11 -113
14 -136 34 -11 10 -34 42 -52 71 l-32 53 35 180 c19 99 48 252 64 340 46 240
41 223 51 200 5 -11 34 -156 64 -323z m229 203 c14 -72 46 -237 70 -368 l45
-239 -42 -64 c-44 -67 -65 -80 -147 -86 l-34 -3 -23 125 -23 125 19 110 c39
220 93 510 97 524 8 24 13 9 38 -124z"/>
</g>
</svg>
